<svg xmlns="http://www.w3.org/2000/svg" width="768" height="1024" viewBox="0 0 768 1024">
  <rect width="768" height="1024" fill="#eceef5"/>
  <rect x="70" y="70" width="628" height="884" rx="36" fill="none" stroke="#d2d6e0" stroke-width="4"/>
  <rect x="210" y="520" width="350" height="460" rx="80" fill="#36445c"/>
  <rect x="330" y="430" width="108" height="130" rx="20" fill="#ecc4aa"/>
  <ellipse cx="385" cy="305" rx="135" ry="165" fill="#ecc4aa"/>
  <path d="M250 310c0-135 50-210 135-210s135 75 135 210c-15-105-55-150-135-150s-120 45-135 150Z" fill="#2a221e"/>
  <rect x="245" y="250" width="40" height="120" fill="#2a221e"/>
  <rect x="485" y="250" width="40" height="120" fill="#2a221e"/>
  <ellipse cx="342" cy="282" rx="12" ry="8" fill="#3b2e2b"/>
  <ellipse cx="428" cy="282" rx="12" ry="8" fill="#3b2e2b"/>
  <path d="M343 338c22 20 45 20 84 0" fill="none" stroke="#8c5550" stroke-width="5" stroke-linecap="round"/>
  <path d="M320 560 384 650 448 560" fill="#f5f5f7"/>
</svg>
